{
  "accessors": [
    {
      "bufferView": 2,
      "componentType": 5126,
      "count": 65532,
      "max": [
        2.411592483520508,
        7.8286542892456055,
        2.9583888053894043
      ],
      "min": [
        -2.9024112224578857,
        -3.068953275680542,
        -3.730372905731201
      ],
      "type": "VEC3"
    },
    {
      "bufferView": 2,
      "byteOffset": 786384,
      "componentType": 5126,
      "count": 65532,
      "max": [
        0.9999967813491821,
        0.9999412894248962,
        0.9999902248382568
      ],
      "min": [
        -1.0,
        -0.9999868273735046,
        -0.9999999403953552
      ],
      "type": "VEC3"
    },
    {
      "bufferView": 3,
      "componentType": 5126,
      "count": 65532,
      "max": [
        0.9999985694885254,
        0.9999992847442627,
        0.999994158744812,
        1.0
      ],
      "min": [
        -0.9989176988601685,
        -0.9999998211860657,
        -0.9999972581863403,
        -1.0
      ],
      "type": "VEC4"
    },
    {
      "bufferView": 1,
      "componentType": 5126,
      "count": 65532,
      "max": [
        0.9996404051780701,
        0.9550647735595703
      ],
      "min": [
        0.0003596256428863853,
        0.0003596228489186615
      ],
      "type": "VEC2"
    },
    {
      "bufferView": 1,
      "byteOffset": 524256,
      "componentType": 5126,
      "count": 65532,
      "max": [
        0.9996404051780701,
        0.9550647735595703
      ],
      "min": [
        0.0003596256428863853,
        0.0003596228489186615
      ],
      "type": "VEC2"
    },
    {
      "bufferView": 1,
      "byteOffset": 1048512,
      "componentType": 5126,
      "count": 65532,
      "max": [
        0.9996404051780701,
        0.9550647735595703
      ],
      "min": [
        0.0003596256428863853,
        0.0003596228489186615
      ],
      "type": "VEC2"
    },
    {
      "bufferView": 0,
      "componentType": 5125,
      "count": 380541,
      "type": "SCALAR"
    },
    {
      "bufferView": 2,
      "byteOffset": 1572768,
      "componentType": 5126,
      "count": 17940,
      "max": [
        2.462606191635132,
        7.8286542892456055,
        2.968564510345459
      ],
      "min": [
        -2.957047700881958,
        -1.3989999294281006,
        -3.530628204345703
      ],
      "type": "VEC3"
    },
    {
      "bufferView": 2,
      "byteOffset": 1788048,
      "componentType": 5126,
      "count": 17940,
      "max": [
        0.9999942779541016,
        0.9999412894248962,
        0.9999613165855408
      ],
      "min": [
        -0.9999895691871643,
        -0.9974026679992676,
        -0.9998040795326233
      ],
      "type": "VEC3"
    },
    {
      "bufferView": 3,
      "byteOffset": 1048512,
      "componentType": 5126,
      "count": 17940,
      "max": [
        0.9975358843803406,
        0.9983240962028503,
        0.999966561794281,
        1.0
      ],
      "min": [
        -0.9958334565162659,
        -0.9999927878379822,
        -0.9997922778129578,
        -1.0
      ],
      "type": "VEC4"
    },
    {
      "bufferView": 1,
      "byteOffset": 1572768,
      "componentType": 5126,
      "count": 17940,
      "max": [
        0.99869304895401,
        0.944129467010498
      ],
      "min": [
        0.054683830589056015,
        0.001075780251994729
      ],
      "type": "VEC2"
    },
    {
      "bufferView": 1,
      "byteOffset": 1716288,
      "componentType": 5126,
      "count": 17940,
      "max": [
        0.99869304895401,
        0.944129467010498
      ],
      "min": [
        0.054683830589056015,
        0.001075780251994729
      ],
      "type": "VEC2"
    },
    {
      "bufferView": 1,
      "byteOffset": 1859808,
      "componentType": 5126,
      "count": 17940,
      "max": [
        0.99869304895401,
        0.944129467010498
      ],
      "min": [
        0.054683830589056015,
        0.001075780251994729
      ],
      "type": "VEC2"
    },
    {
      "bufferView": 0,
      "byteOffset": 1522164,
      "componentType": 5125,
      "count": 102489,
      "type": "SCALAR"
    }
  ],
  "asset": {
    "extras": {
      "author": "rickmaolly (https://sketchfab.com/rickmaolly)",
      "license": "CC-BY-4.0 (http://creativecommons.org/licenses/by/4.0/)",
      "source": "https://sketchfab.com/3d-models/bed-b8c16d4b69f64335b46379b119b102b4",
      "title": "Bed"
    },
    "generator": "Sketchfab-15.32.0",
    "version": "2.0"
  },
  "bufferViews": [
    {
      "buffer": 0,
      "byteLength": 1932120,
      "name": "floatBufferViews",
      "target": 34963
    },
    {
      "buffer": 0,
      "byteLength": 2003328,
      "byteOffset": 1932120,
      "byteStride": 8,
      "name": "floatBufferViews",
      "target": 34962
    },
    {
      "buffer": 0,
      "byteLength": 2003328,
      "byteOffset": 3935448,
      "byteStride": 12,
      "name": "floatBufferViews",
      "target": 34962
    },
    {
      "buffer": 0,
      "byteLength": 1335552,
      "byteOffset": 5938776,
      "byteStride": 16,
      "name": "floatBufferViews",
      "target": 34962
    }
  ],
  "buffers": [
    {
      "byteLength": 7274328,
      "uri": "scene.bin"
    }
  ],
  "images": [
    {
      "uri": "textures/Material_baseColor.jpeg"
    },
    {
      "uri": "textures/Material_metallicRoughness.png"
    },
    {
      "uri": "textures/Material_normal.png"
    }
  ],
  "materials": [
    {
      "doubleSided": true,
      "name": "Material",
      "normalTexture": {
        "index": 2,
        "texCoord": 1
      },
      "pbrMetallicRoughness": {
        "baseColorTexture": {
          "index": 0
        },
        "metallicRoughnessTexture": {
          "index": 1
        }
      }
    }
  ],
  "meshes": [
    {
      "name": "Plane.001_Material_0",
      "primitives": [
        {
          "attributes": {
            "NORMAL": 1,
            "POSITION": 0,
            "TANGENT": 2,
            "TEXCOORD_0": 3,
            "TEXCOORD_1": 4,
            "TEXCOORD_2": 5
          },
          "indices": 6,
          "material": 0,
          "mode": 4
        }
      ]
    },
    {
      "name": "Plane.001_Material_0",
      "primitives": [
        {
          "attributes": {
            "NORMAL": 8,
            "POSITION": 7,
            "TANGENT": 9,
            "TEXCOORD_0": 10,
            "TEXCOORD_1": 11,
            "TEXCOORD_2": 12
          },
          "indices": 13,
          "material": 0,
          "mode": 4
        }
      ]
    }
  ],
  "nodes": [
    {
      "children": [
        1
      ],
      "matrix": [
        1.0,
        0.0,
        0.0,
        0.0,
        0.0,
        2.220446049250313e-16,
        -1.0,
        0.0,
        0.0,
        1.0,
        2.220446049250313e-16,
        0.0,
        0.0,
        0.0,
        0.0,
        1.0
      ],
      "name": "Sketchfab_model"
    },
    {
      "children": [
        2
      ],
      "matrix": [
        0.009999999776482582,
        0.0,
        0.0,
        0.0,
        0.0,
        0.0,
        0.009999999776482582,
        0.0,
        0.0,
        -0.009999999776482582,
        0.0,
        0.0,
        0.0,
        0.0,
        0.0,
        1.0
      ],
      "name": "Cama.fbx"
    },
    {
      "children": [
        3
      ],
      "name": "RootNode"
    },
    {
      "children": [
        4,
        5
      ],
      "matrix": [
        32.57767105102539,
        0.0,
        0.0,
        0.0,
        0.0,
        -10.681622127297647,
        -18.645080193578842,
        0.0,
        0.0,
        18.645080193578842,
        -10.681622127297647,
        0.0,
        7.847580909729004,
        63.73705291748047,
        48.11302947998047,
        1.0
      ],
      "name": "Plane.001"
    },
    {
      "mesh": 0,
      "name": "Plane.001_Material_0"
    },
    {
      "mesh": 1,
      "name": "Plane.001_Material_0"
    }
  ],
  "samplers": [
    {
      "magFilter": 9729,
      "minFilter": 9987,
      "wrapS": 10497,
      "wrapT": 10497
    }
  ],
  "scene": 0,
  "scenes": [
    {
      "name": "Sketchfab_Scene",
      "nodes": [
        0
      ]
    }
  ],
  "textures": [
    {
      "sampler": 0,
      "source": 0
    },
    {
      "sampler": 0,
      "source": 1
    },
    {
      "sampler": 0,
      "source": 2
    }
  ]
}
